<?xml version="1.0" encoding="UTF-8"?> <!-- Creator: CorelDRAW 2021.5 --> <svg xmlns="http://www.w3.org/2000/svg" xmlns:xlink="http://www.w3.org/1999/xlink" xmlns:xodm="http://www.corel.com/coreldraw/odm/2003" xml:space="preserve" width="80mm" height="80mm" style="shape-rendering:geometricPrecision; text-rendering:geometricPrecision; image-rendering:optimizeQuality; fill-rule:evenodd; clip-rule:evenodd" viewBox="0 0 8000 8000"> <defs> <style type="text/css"> <![CDATA[ .str0 {stroke:#FEFEFE;stroke-width:75;stroke-miterlimit:22.9256} .fil0 {fill:none;fill-rule:nonzero} ]]> </style> </defs> <g id="Слой_x0020_1"> <metadata id="CorelCorpID_0Corel-Layer"></metadata> <path class="fil0 str0" d="M3085.71 955.71l-310.73 133.49 310.73 167.52 0 1179.7 -310.73 140.73 310.73 186.88 0 1267.13c0,186.88 -17.07,424.77 -291.28,424.77 -274.31,0 -220.91,-381.1 -220.91,-381.1l301 -186.88 -301 -133.57c0,-317.98 -26.7,-1233.01 -682.1,-1179.61 -655.4,53.39 -602.01,949.06 -602.01,949.06l-300.91 133.49 300.91 186.87 0 956.41 -300.91 133.48 337.33 160.27c337.43,825.22 1745.29,762.1 1745.29,762.1l0 478.16 -291.28 133.57 291.28 150.46 0 771.91c0,0 247.61,230.64 885.95,213.57 638.43,-16.97 852,-220.82 852,-220.82l-9.72 -354.4 291.28 -140.82 -291.28 -160.18 9.72 -885.95 310.73 -140.82 -310.73 -140.73 0 -471c1631.16,26.7 1764.65,-805.86 1764.65,-805.86l26.69 -203.85 301.01 -150.45 -325.23 -167.52 9.64 -859.34 327.7 -145.6 -339.81 -165.04 0 -186.88c0,-267.06 -242.75,-592.28 -631.09,-592.28 -652.93,0 -623.84,609.25 -623.84,609.25 0,0 0,628.62 0,805.86 0,177.15 43.67,451.46 -266.97,461.19 -310.73,9.72 -247.61,-407.8 -247.61,-407.8l317.97 -167.52 -291.27 -160.18 0 -1201.53 291.27 -230.55 -317.97 -150.55 0 -451.46c0,0 9.72,-779.16 -902.92,-745.21 -912.74,36.42 -815.58,779.16 -815.58,779.16l0 2.47z"></path> </g> </svg> 