<?xml version="1.0" encoding="UTF-8"?> <!-- Creator: CorelDRAW 2021.5 --> <svg xmlns="http://www.w3.org/2000/svg" xmlns:xlink="http://www.w3.org/1999/xlink" xmlns:xodm="http://www.corel.com/coreldraw/odm/2003" xml:space="preserve" width="160mm" height="30mm" style="shape-rendering:geometricPrecision; text-rendering:geometricPrecision; image-rendering:optimizeQuality; fill-rule:evenodd; clip-rule:evenodd" viewBox="0 0 16000 3000"> <defs> <style type="text/css"> <![CDATA[ .fil0 {fill:#11693D;fill-rule:nonzero} ]]> </style> </defs> <g id="Слой_x0020_1"> <metadata id="CorelCorpID_0Corel-Layer"></metadata> <path class="fil0" d="M4056.11 2367.64c0,34.9 -11.05,63.41 -34,86.37 -22.99,22.99 -51.47,34 -86.37,34l-201.26 0c-34.9,0 -63.38,-11.01 -86.37,-34 -22.96,-22.96 -34,-51.47 -34,-86.37l0 -1167.91c0,-34.91 11.04,-63.39 34,-86.34 22.99,-22.99 51.47,-34.04 86.37,-34.04l201.26 0c34.9,0 63.38,11.05 86.37,34.04 22.95,22.95 34,51.43 34,86.34l0 221.46c0,20.22 -10.11,30.32 -30.36,30.32l-60.63 0c-20.22,0 -30.32,-10.1 -30.32,-30.32l0 -191.11c0,-20.25 -10.11,-30.35 -30.32,-30.35l-140.59 0c-20.21,0 -30.31,10.1 -30.31,30.35l0 1107.24c0,20.21 10.1,30.32 30.31,30.32l140.59 0c20.21,0 30.32,-10.11 30.32,-30.32l0 -201.26c0,-20.21 10.1,-30.32 30.32,-30.32l60.63 0c20.25,0 30.36,10.11 30.36,30.32l0 231.58z"></path> <path class="fil0" d="M4609.28 1078.45c17.43,0 27.54,10.11 30.31,30.32l170.91 1348.92c0,20.21 -10.11,30.32 -30.32,30.32l-60.64 0c-18.4,0 -28.51,-10.11 -30.35,-30.32l-30.32 -231.57 -221.43 0 -30.32 231.57c-2.78,20.21 -12.89,30.32 -30.32,30.32l-60.67 0c-20.22,0 -30.32,-10.11 -30.32,-30.32l170.9 -1348.92c0.94,-20.21 11.04,-30.32 30.35,-30.32l120.38 0 1.84 0zm40.42 1027.29l-101.1 -815.02 -101.06 815.02 201.22 0 0.94 0z"></path> <path class="fil0" d="M5525.37 2367.64c0,34.9 -11.01,63.41 -33.97,86.37 -22.99,22.99 -51.47,34 -86.4,34l-201.23 0c-34.9,0 -63.41,-11.01 -86.37,-34 -22.95,-22.96 -34,-51.47 -34,-86.37l0 -1167.91c0,-34.91 11.05,-63.39 34,-86.34 22.96,-22.99 51.47,-34.04 86.37,-34.04l201.23 0c34.93,0 63.41,11.05 86.4,34.04 22.96,22.95 33.97,51.43 33.97,86.34l0 221.46c0,20.22 -10.11,30.32 -30.32,30.32l-60.64 0c-20.21,0 -30.32,-10.1 -30.32,-30.32l0 -191.11c0,-20.25 -10.1,-30.35 -30.32,-30.35l-140.58 0c-20.21,0 -30.32,10.1 -30.32,30.35l0 1107.24c0,20.21 10.11,30.32 30.32,30.32l140.58 0c20.22,0 30.32,-10.11 30.32,-30.32l0 -201.26c0,-20.21 10.11,-30.32 30.32,-30.32l60.64 0c20.21,0 30.32,10.11 30.32,30.32l0 231.58z"></path> <path class="fil0" d="M6018.84 2457.69c0,20.21 -10.11,30.32 -30.36,30.32l-60.63 0c-20.22,0 -30.32,-10.11 -30.32,-30.32l0 -1257.96 -150.69 0c-20.22,0 -30.32,-10.11 -30.32,-30.32l0 -60.64c0,-20.21 10.1,-30.32 30.32,-30.32l422.69 0c20.21,0 30.32,10.11 30.32,30.32l0 60.64c0,20.21 -10.11,30.32 -30.32,30.32l-150.69 0 0 1257.96 0 0z"></path> <path class="fil0" d="M6552.7 2337.32c0,20.21 10.1,30.32 30.31,30.32l140.59 0c20.21,0 30.32,-10.11 30.32,-30.32l0 -1228.55c0,-20.21 10.1,-30.32 30.32,-30.32l60.67 0c20.21,0 30.32,10.11 30.32,30.32l0 1257.93c0,34.94 -11.05,63.42 -34,86.41 -22.99,22.95 -51.47,34 -86.37,34l-201.26 0c-34.9,0 -63.38,-11.05 -86.37,-34 -22.96,-22.99 -34,-51.47 -34,-86.41l0 -1257.93c0,-20.21 10.1,-30.32 30.32,-30.32l60.67 0c20.21,0 30.32,10.11 30.32,30.32l0 1228.55 -1.84 0z"></path> <path class="fil0" d="M7629.62 2367.64c0,34.9 -11.01,63.41 -34,86.37 -22.96,22.96 -51.47,34 -86.37,34l-201.23 0c-34.93,0 -63.41,-11.04 -86.37,-34 -22.99,-22.96 -34,-51.47 -34,-86.37l0 -231.58c0,-20.21 10.11,-30.32 30.32,-30.32l60.64 0c20.21,0 30.32,10.11 30.32,30.32l0 201.26c0,20.21 10.1,30.32 30.32,30.32l140.58 0c20.21,0 30.32,-10.11 30.32,-30.32l0 -372.16c0,-31.22 -3.65,-53.27 -11.91,-66.16 -8.3,-12.85 -17.47,-24.8 -28.52,-34l-201.22 -181.01c-20.21,-18.37 -38.58,-41.36 -55.15,-66.16 -16.53,-24.79 -24.79,-63.41 -24.79,-114.85l0 -302.32c0,-34.93 11.04,-63.41 34,-86.37 22.95,-22.99 51.46,-34 86.37,-34l201.22 0c34.94,0 63.42,11.01 86.41,34 22.95,22.96 34,51.44 34,86.37l0 221.44c0,20.21 -10.14,30.32 -30.36,30.32l-60.63 0c-20.22,0 -30.32,-10.11 -30.32,-30.32l0 -191.12c0,-20.21 -10.11,-30.32 -30.32,-30.32l-140.59 0c-20.21,0 -30.32,10.11 -30.32,30.32l0 251.79c0,31.22 3.65,53.27 11.95,66.16 8.27,12.85 17.44,24.8 28.48,34l201.22 181.01c20.21,18.37 38.59,41.33 55.15,66.16 16.53,25.73 24.8,63.38 24.8,114.85l0 422.69z"></path> <path class="fil0" d="M10092.21 2102.06l-113.01 0 0 399.74 -90.96 0 0 -1025.49 234.32 0c93.7,0 166.32,26.67 216.85,78.11 50.53,51.47 76.27,125.89 76.27,221.47 0,89.11 -20.22,160.79 -59.74,215.91 -39.52,55.15 -94.64,89.15 -166.32,102.94l251.79 405.22 -105.68 0 -244.43 -399.7 0.91 1.8zm-113.01 -84.53l141.52 0c66.16,0 116.69,-20.21 150.69,-59.7 34,-39.52 51.44,-98.35 51.44,-174.62 0,-76.26 -16.54,-128.63 -50.54,-165.38 -34,-36.74 -83.59,-56.05 -149.75,-56.05l-143.36 0 0 455.75 0 0z"></path> <path class="fil0" d="M11056.12 2265.64c-5.52,80.85 -31.22,143.36 -76.26,185.63 -45.01,43.17 -106.59,64.32 -185.6,64.32 -79.04,0 -136,-23.9 -181.04,-71.69 -44.11,-47.78 -67.07,-114.85 -67.07,-202.16l0 -253.59c0,-87.31 22.96,-154.37 68,-202.16 45.01,-47.79 106.59,-71.68 183.76,-71.68 77.2,0 140.62,23.89 186.53,71.68 45.95,47.79 69.84,114.85 69.84,202.16l0 169.97 -419.91 0 0 83.62c0,63.42 13.79,111.21 42.26,141.53 28.48,31.22 68,46.85 120.38,46.85 52.37,0 94.63,-13.79 122.21,-40.43 27.57,-26.64 45.01,-68.9 50.53,-124.95l86.37 0 0 0.9zm-378.58 -419.01c-29.38,31.26 -43.17,79.01 -43.17,142.42l0 89.15 333.54 0 0 -89.15c0,-63.41 -14.69,-111.16 -44.11,-142.42 -29.38,-31.26 -70.74,-46.85 -124.05,-46.85 -53.28,0 -93.7,15.59 -122.21,46.85z"></path> <path class="fil0" d="M11622.17 1784.15c42.27,45.95 62.48,107.52 62.48,185.59l0 532.06 -74.42 0 -7.37 -73.52c-43.2,60.63 -102,90.99 -177.36,90.99 -75.33,0 -130.48,-21.15 -175.49,-62.52 -45.04,-42.26 -67.09,-99.22 -67.09,-172.74 0,-73.49 22.99,-131.38 68.94,-170.9 45.94,-39.52 111.16,-59.74 194.79,-59.74l152.53 0 0 -81.75c0,-56.05 -12.85,-99.26 -38.58,-128.67 -25.74,-29.38 -63.42,-44.11 -113.04,-44.11 -44.11,0 -79.92,11.95 -107.49,35.84 -27.58,23.9 -43.21,56.99 -45.95,99.26l-86.37 0c2.74,-66.16 26.64,-119.47 70.74,-158.99 44.11,-39.49 101.1,-58.8 172.75,-58.8 71.68,0 130.47,22.96 172.74,68.9l-1.81 -0.9zm-67.09 606.44c28.48,-29.38 43.2,-68.9 43.2,-120.33l0 -136 -155.31 0c-56.96,0 -100.16,12.85 -128.64,38.58 -29.41,25.74 -44.1,63.42 -44.1,112.11 0,48.69 15.63,86.37 45.01,111.17 29.41,24.83 71.68,37.68 123.15,37.68 48.69,0 87.27,-14.69 116.69,-44.11l0 0.9z"></path> <polygon class="fil0" points="11883.13,1443.25 11969.5,1443.25 11969.5,2501.8 11883.13,2501.8 "></polygon> <polygon class="fil0" points="13012.43,2418.17 13012.43,2501.8 12518.99,2501.8 12518.99,1476.31 12996.8,1476.31 12996.8,1559.94 12609.95,1559.94 12609.95,1939.43 12972,1939.43 12972,2023.05 12609.95,2023.05 12609.95,2418.17 "></polygon> <path class="fil0" d="M13167.7 2452.17c-46.85,-45.01 -69.81,-104.74 -69.81,-178.27l86.38 0c0,50.54 14.69,90.06 44.1,118.57 29.38,28.48 70.75,42.23 124.06,42.23 47.75,0 84.53,-11.01 111.16,-34.9 26.64,-22.96 39.53,-55.15 39.53,-95.58 0,-27.54 -7.37,-49.59 -22.99,-68 -14.7,-18.37 -34,-33.06 -55.12,-44.07 -21.15,-11.04 -53.31,-24.83 -94.64,-40.46 -48.72,-19.27 -88.21,-37.68 -116.72,-53.27 -29.38,-16.57 -54.22,-38.59 -74.43,-67.1 -21.11,-28.48 -30.32,-65.22 -30.32,-109.33 0,-62.51 21.15,-113.01 63.42,-149.79 42.26,-37.68 98.32,-56.05 167.22,-56.05 68.94,0 130.48,21.15 173.68,64.32 43.17,43.2 65.22,100.16 65.22,171.84l-86.37 0c0,-47.79 -13.79,-85.47 -40.42,-112.11 -26.64,-26.63 -64.32,-40.42 -112.11,-40.42 -45.01,0 -79.95,11.01 -105.68,33.06 -25.7,22.05 -37.65,53.31 -37.65,92.83 0,35.84 13.79,64.32 41.33,83.6 27.58,19.31 68.94,40.46 125.89,61.57 49.63,19.31 90.06,37.68 119.47,54.21 29.38,16.54 55.12,39.53 77.17,69.84 21.15,29.42 32.16,68 32.16,113.95 0,63.38 -22.05,114.85 -66.16,153.44 -44.1,39.52 -101.06,58.79 -172.74,58.79 -76.27,0 -137.84,-22.95 -184.69,-67.06l-0.94 -1.84z"></path> <path class="fil0" d="M14046.18 2427.37l0 81.79 -44.11 0c-69.84,0 -124.05,-21.15 -161.73,-62.48 -37.68,-41.36 -56.05,-99.25 -56.05,-173.68l0 -459.43 -116.7 0 0 -80.89 116.7 0 0 -177.33 86.37 0 0 177.33 158.05 0 0 80.89 -158.05 0 0 459.43c0,102 44.1,153.44 131.41,153.44l44.11 0 0 0.93z"></path> <path class="fil0" d="M14569.93 1784.15c42.27,45.95 62.48,107.52 62.48,185.59l0 532.06 -74.42 0 -7.37 -73.52c-43.17,60.63 -102,90.99 -177.33,90.99 -75.36,0 -130.47,-21.15 -175.52,-62.52 -45.01,-42.26 -67.06,-99.22 -67.06,-172.74 0,-73.49 22.96,-131.38 68.9,-170.9 45.95,-39.52 110.27,-59.74 194.8,-59.74l152.53 0 0 -81.75c0,-56.05 -12.85,-99.26 -38.58,-128.67 -25.74,-29.38 -63.38,-44.11 -113.95,-44.11 -44.11,0 -79.95,11.95 -107.49,35.84 -27.57,23.9 -43.2,56.99 -45.94,99.26l-86.38 0c2.75,-66.16 26.64,-119.47 69.84,-158.99 44.11,-39.49 101.07,-58.8 172.75,-58.8 71.65,0 130.48,22.96 172.74,68.9l0 -0.9zm-67.09 606.44c29.41,-29.38 43.2,-68.9 43.2,-120.33l0 -136 -155.28 0c-56.99,0 -99.25,12.85 -128.67,38.58 -29.38,25.74 -44.1,63.42 -44.1,112.11 0,48.69 14.72,86.37 45.04,111.17 30.32,25.73 70.74,37.68 123.11,37.68 48.73,0 87.31,-14.69 115.79,-44.11l0.91 0.9z"></path> <path class="fil0" d="M15135.05 2427.37l0 81.79 -44.11 0c-70.78,0 -124.05,-21.15 -161.73,-62.48 -37.68,-41.36 -56.06,-99.25 -56.06,-173.68l0 -459.43 -116.69 0 0 -80.89 116.69 0 0 -177.33 86.38 0 0 177.33 158.05 0 0 80.89 -158.05 0 0 459.43c0,102 44.1,153.44 132.32,153.44l44.1 0 -0.9 0.93z"></path> <path class="fil0" d="M15754.38 2265.64c-5.52,80.85 -31.26,143.36 -76.27,185.63 -45.04,43.17 -106.62,64.32 -185.63,64.32 -79.01,0 -136,-23.9 -181.01,-71.69 -44.1,-47.78 -66.16,-114.85 -66.16,-202.16l0 -253.59c0,-87.31 22.96,-154.37 68,-202.16 45.01,-47.79 106.59,-71.68 183.76,-71.68 77.2,0 140.58,23.89 186.53,71.68 45.95,47.79 69.84,114.85 69.84,202.16l0 169.97 -419.91 0 0 83.62c0,63.42 13.78,111.21 42.26,141.53 28.48,31.22 68,46.85 120.37,46.85 52.38,0 94.64,-13.79 122.22,-40.43 27.57,-26.64 45.01,-68.9 50.53,-124.95l86.37 0 -0.9 0.9zm-378.59 -419.01c-28.48,31.26 -43.2,79.01 -43.2,142.42l0 89.15 333.57 0 0 -89.15c0,-63.41 -14.72,-111.16 -44.1,-142.42 -29.42,-31.26 -70.78,-46.85 -124.06,-46.85 -53.3,0 -93.73,15.59 -122.21,46.85z"></path> <path class="fil0" d="M8810.38 1064.66l-82.69 0c-10.17,0 -18.37,8.23 -18.37,18.37l0 1400.4c0,10.14 8.2,18.37 18.37,18.37l82.69 0c10.14,0 18.37,-8.23 18.37,-18.37l0 -1400.4c0,-10.14 -8.23,-18.37 -18.37,-18.37z"></path> <path class="fil0" d="M1036.67 396.64l-117.63 50.53 117.63 63.42 0 446.59 -117.63 53.27 117.63 70.74 0 479.69c0,70.74 -6.46,160.79 -110.27,160.79 -103.84,0 -83.63,-144.26 -83.63,-144.26l113.95 -70.75 -113.95 -50.56c0,-120.37 -10.1,-466.77 -258.21,-446.55 -248.11,20.21 -227.89,359.27 -227.89,359.27l-113.92 50.53 113.92 70.75 0 362.05 -113.92 50.53 127.7 60.67c127.74,312.39 660.7,288.5 660.7,288.5l0 181.01 -110.27 50.57 110.27 56.95 0 292.22c0,0 93.73,87.3 335.38,80.85 241.68,-6.43 322.53,-83.6 322.53,-83.6l-3.68 -134.16 110.26 -53.31 -110.26 -60.63 3.68 -335.39 117.63 -53.31 -117.63 -53.27 0 -178.3c617.49,10.11 668.02,-305.06 668.02,-305.06l10.1 -77.17 113.95 -56.96 -123.11 -63.41 3.64 -325.31 124.06 -55.12 -128.64 -62.48 0 -70.74c0,-101.1 -91.9,-224.21 -238.91,-224.21 -247.16,0 -236.16,230.63 -236.16,230.63 0,0 0,237.97 0,305.07 0,67.06 16.54,170.9 -101.06,174.58 -117.63,3.68 -93.73,-154.37 -93.73,-154.37l120.37 -63.42 -110.27 -60.63 0 -454.86 110.27 -87.27 -120.37 -56.99 0 -170.9c0,0 3.68,-294.96 -341.81,-282.11 -345.52,13.79 -308.74,294.96 -308.74,294.96l0 0.93z"></path> </g> </svg> 